<svg viewBox="0 0 462 462" fill="none" xmlns="http://www.w3.org/2000/svg"
                                class="w-full h-full">
                                <path
                                    d="M138.84 321.499C164.454 333.002 186.588 340.556 209.313 345.034C230.697 349.248 252.375 350.691 277.684 350.3C280.211 354.077 283.478 357.302 287.273 359.761C274.023 397.736 259.626 424.937 237.687 461.903C235.465 461.966 233.236 462 231 462C205.116 462 180.226 457.742 156.992 449.89C134.489 407.274 126.258 368.587 129.596 326.911C133.065 325.82 136.208 323.952 138.84 321.499ZM326.308 357.078C360.255 366.064 387.323 369.779 416.955 368.07C379.512 418.783 321.82 453.632 255.815 460.682C275.208 427.502 288.816 400.845 301.402 364.801C302.584 364.931 303.784 365 305 365C313.123 365 320.558 362.019 326.308 357.078ZM25.3535 238.508C26.5541 238.798 27.7991 238.963 29.0762 238.993C50.1608 263.636 71.5958 282.83 98.1406 299.766C98.0486 300.664 98 301.576 98 302.5C98 313.695 104.932 323.204 114.571 326.634C111.576 365.901 118.25 402.748 136.22 441.722C69.7171 411.763 19.9475 351.249 4.79883 278.065C5.9803 273.446 7.62888 268.613 9.70605 263.767C13.929 253.913 19.5104 244.963 25.3535 238.508ZM459.191 267.114C454.358 297.898 443.446 326.664 427.721 352.146C396.98 355.366 370.346 352.775 335.624 343.997C337.155 340.135 338 335.918 338 331.5C338 330.305 337.937 329.124 337.816 327.961C353.214 317.858 371.157 305.244 384.04 293.555C398.296 280.619 411.977 261.557 421.928 246.127C425.553 240.505 428.727 235.29 431.308 230.921C432.205 230.844 433.086 230.712 433.946 230.526L459.191 267.114ZM179.974 208.597C222.513 242.383 248.001 271.708 276.003 315.494C273.45 320.25 272 325.703 272 331.5C272 332.805 272.076 334.092 272.219 335.358C249.906 335.468 230.848 333.99 212.214 330.317C191.286 326.193 170.644 319.251 146.335 308.417C146.769 306.518 147 304.537 147 302.5C147 292.508 141.478 283.86 133.438 279.678C136.145 256.465 142.769 237.162 154.054 213.02C156.599 213.658 159.26 214 162 214C168.63 214 174.802 212.013 179.974 208.597ZM324.724 201.385C341.838 208.251 357.672 209.559 372.885 210.589C385.159 211.419 396.973 212.076 409.399 214.948C410.345 219.557 412.915 223.593 416.502 226.466C414.4 229.959 411.987 233.866 409.322 237.998C399.523 253.193 386.704 270.882 373.96 282.445C362.77 292.599 347.116 303.792 332.735 313.342C329.285 307.922 324.336 303.578 318.483 300.915C320.913 288.862 322.52 278.259 323.53 267.532C325.315 248.584 325.225 229.395 324.724 201.385ZM235.168 135.245C261.018 158.339 284.491 180.632 309.584 194.111C310.198 226.477 310.445 246.488 308.596 266.126C307.641 276.267 306.12 286.355 303.765 298.025C297.315 298.266 291.339 300.385 286.351 303.86C258.611 261.059 232.554 231.358 190.335 197.676C193.296 192.653 195 186.779 195 180.5C195 176.142 194.179 171.978 192.688 168.159L235.168 135.245ZM130.719 191.199C132.665 197.065 136.169 202.203 140.729 206.11C128.902 231.332 121.633 252.153 118.618 277.319C112.837 278.277 107.73 281.339 104.045 285.729C80.9752 270.732 61.9693 253.846 43.29 232.496C46.2181 229.046 48 224.493 48 219.5C48 219.022 47.9823 218.548 47.9502 218.078C58.6372 209.417 69.3687 203.113 82.1133 198.763C95.1538 194.311 110.616 191.799 130.719 191.199ZM2.88477 194.385C5.9806 200.676 9.17906 207.085 12.1211 212.799C11.3957 214.888 11 217.146 11 219.5C11 223.062 11.9068 226.401 13.4893 229.274C8.68602 234.737 4.32377 241.228 0.624023 248.101C0.210859 242.454 0 236.752 0 231C0 218.54 0.985581 206.31 2.88477 194.385ZM454.406 172.039C459.36 190.861 462 210.622 462 231C462 235.441 461.874 239.852 461.627 244.231L446.455 222.244C448.692 219.04 450 215.169 450 211C450 206.222 448.282 201.835 445.416 198.396L454.406 172.039ZM125.413 25.4893C124.503 27.6516 124 30.0185 124 32.5C124 40.1372 128.753 46.6924 135.536 49.5166C144.629 81.4766 148.852 112.496 151.01 148.904C139.457 153.046 130.853 163.531 129.264 176.238C108.585 176.924 91.853 179.589 77.2676 184.567C63.5973 189.234 52.0798 195.84 41.1348 204.34C37.9564 201.626 33.9087 200 29.5 200C27.2328 200 25.061 200.43 23.0537 201.217C20.146 195.473 16.999 189.121 13.9258 182.832C11.8468 178.577 9.83044 174.413 7.98242 170.577C25.0705 107.353 68.3271 54.878 125.413 25.4893ZM364.665 95.8564C383.657 95.1326 402.938 96.1765 419.474 97.4072C430.548 113.003 439.734 130.033 446.701 148.163L432.037 191.152C431.206 191.052 430.359 191 429.5 191C422.249 191 415.877 194.672 412.232 200.214C398.498 197.095 385.816 196.43 373.897 195.623C356.815 194.467 341.184 193.026 324.11 184.715L318.181 116.911C327.097 114.323 334.144 107.343 336.826 98.4668C345.67 97.0374 355.067 96.2223 364.665 95.8564ZM293.236 111.904C296.114 114.228 299.468 115.984 303.131 117L308.292 176.017C289.535 164.266 271.16 147.36 249.76 128.172L293.236 111.904ZM151.075 49.4004C181.62 71.2368 196.991 94.6676 224.417 124.599L184.227 155.739C179.275 151.156 172.944 148.084 165.939 147.238C163.815 111.94 159.724 81.0814 151.075 49.4004ZM231 0C245.109 0 258.921 1.26604 272.332 3.68848C278.963 20.9097 286.489 42.3151 292.326 60.5713C293.144 63.1279 293.924 65.6157 294.664 68.0146C287.608 72.993 283 81.2083 283 90.5C283 93.5382 283.494 96.4608 284.404 99.1934L237.56 116.722C210.78 87.7743 193.555 61.808 161.091 38.1621C161.68 36.3773 162 34.4752 162 32.5C162 24.3422 156.577 17.4181 149.05 14.958C174.519 5.29166 202.141 0 231 0ZM289.836 7.56055C336.262 19.7525 376.98 46.0307 407.146 81.5508C393.651 80.7664 378.842 80.3051 364.094 80.8672C355.041 81.2122 345.905 81.9461 337.034 83.2568C333.855 71.5834 323.181 63 310.5 63C309.939 63 309.382 63.0186 308.829 63.0518C308.121 60.7614 307.381 58.406 306.613 56.0039C301.707 40.6575 295.623 23.1113 289.836 7.56055Z"
                                    fill="url(#paint0_linear_196_126)" />
                                <defs>
                                    <linearGradient id="paint0_linear_196_126" x1="11.5" y1="121.5" x2="440.5" y2="366"
                                        gradientUnits="userSpaceOnUse">
                                        <!-- UPDATED STOPS -->
                                        <stop offset="0.3" stop-color="#052E16" /> <!-- Deep Harbor -->
                                        <stop offset="0.8" stop-color="#0F766E" /> <!-- Neural Teal -->
                                    </linearGradient>
                                </defs>
                            </svg>